<svg role="img" viewBox="0 0 48 48" xmlns="http://www.w3.org/2000/svg" id="N8n--Streamline-Simple-Icons" height="48" width="48">
  <desc>
    N8n Streamline Icon: https://streamlinehq.com
  </desc>
  <title>n8n</title>
  <path d="M42.9474 11.3684c-2.3544 0 -4.3326 1.6102 -4.8936 3.7894h-5.791c-2.47 0 -4.578 1.786 -4.984 4.222l-0.2076 1.246a2.526 2.526 0 0 1 -2.492 2.111H22.578c-0.561 -2.1792 -2.5392 -3.7894 -4.8936 -3.7894s-4.3326 1.6102 -4.8934 3.7894H9.946c-0.561 -2.1792 -2.5392 -3.7894 -4.8936 -3.7894C2.2622 18.9474 0 21.2094 0 24s2.262 5.0526 5.0526 5.0526c2.3544 0 4.3326 -1.6102 4.8936 -3.7894h2.8446c0.5608 2.1792 2.5392 3.7894 4.8934 3.7894 2.3544 0 4.3326 -1.6102 4.8936 -3.7894h2.0016a2.526 2.526 0 0 1 2.4918 2.111l0.2076 1.246c0.406 2.436 2.514 4.222 4.984 4.222h0.7384c0.5608 2.179 2.5392 3.7894 4.8936 3.7894 2.7904 0 5.0526 -2.262 5.0526 -5.0526s-2.262 -5.0526 -5.0526 -5.0526c-2.3544 0 -4.3328 1.61 -4.8936 3.7894h-0.7384a2.526 2.526 0 0 1 -2.492 -2.111l-0.2074 -1.246A5.04 5.04 0 0 0 27.9214 24a5.04 5.04 0 0 0 1.642 -2.9588l0.2076 -1.246a2.526 2.526 0 0 1 2.4918 -2.111h5.791c0.561 2.1792 2.5392 3.7894 4.8936 3.7894 2.7904 0 5.0526 -2.262 5.0526 -5.0526s-2.262 -5.0526 -5.0526 -5.0526m0 2.5264a2.526 2.526 0 0 1 2.5262 2.5262 2.526 2.526 0 0 1 -2.5262 2.5264 2.526 2.526 0 0 1 -2.5264 -2.5264 2.526 2.526 0 0 1 2.5264 -2.5262M5.0526 21.4736A2.526 2.526 0 0 1 7.579 24a2.526 2.526 0 0 1 -2.5264 2.5264A2.526 2.526 0 0 1 2.5264 24a2.526 2.526 0 0 1 2.5262 -2.5264m12.6316 0A2.526 2.526 0 0 1 20.2106 24a2.526 2.526 0 0 1 -2.5264 2.5264A2.526 2.526 0 0 1 15.158 24a2.526 2.526 0 0 1 2.5264 -2.5264m20.2106 7.579a2.526 2.526 0 0 1 2.5262 2.5264 2.526 2.526 0 0 1 -2.5262 2.5262 2.526 2.526 0 0 1 -2.5264 -2.5262 2.526 2.526 0 0 1 2.5264 -2.5264" fill="#f3003a" stroke-width="2"></path>
</svg>